# xmcd CD database file
#
# Track frame offsets:
#	150
#	19042
#	39630
#	62546
#	77597
#	93498
#	122295
#	134492
#	148649
#	162010
#	179108
#
# Disc length: 2708 seconds
#
# Revision: 3
# Processed by: cddbd v1.4PL0 Copyright (c) Steve Scherf et al.
# Submitted via: Feurio! 1.64.1ß - http://www.feurio.com
#
DISCID=8d0a920b
DTITLE=Gregor Hilden and Hans D. Riesop - Compared To What
DYEAR=1996
DGENRE=blues
TTITLE0=Body And Fender Man
TTITLE1=I Wouldn´t Treat A Dog
TTITLE2=Compared To What
TTITLE3=I Wonder Why
TTITLE4=The Rain Blues
TTITLE5=The Blues Is Still Around
TTITLE6=Harlem Stomp
TTITLE7=I Feel Alright
TTITLE8=Second Hand Blues
TTITLE9=This Is The Way
TTITLE10=Alabama Blues
EXTD=
EXTT0=
EXTT1=
EXTT2=
EXTT3=
EXTT4=
EXTT5=
EXTT6=
EXTT7=
EXTT8=
EXTT9=
EXTT10=
PLAYORDER=
